<?xml version="1.0" encoding="UTF-8"?><svg id="Layer_2" xmlns="http://www.w3.org/2000/svg" viewBox="0 0 171.2 141"><defs><style>.cls-1{fill:#fff;}.cls-1,.cls-2,.cls-3,.cls-4,.cls-5,.cls-6,.cls-7{fill-rule:evenodd;}.cls-2{fill:#ffc43b;}.cls-3{fill:#db2e2c;}.cls-4{fill:#a6832c;}.cls-5{fill:#4f251f;}.cls-6{fill:#db2738;}.cls-8{fill:#ff6f63;}.cls-7{fill:#54b02c;}</style></defs><g id="OBJECTS"><path class="cls-8" d="M143.43,67.06c.09-3.02-.5-5.9-1.35-8.75-.18-.6-.38-1.28-.79-1.69-.67-.66-.81-1.45-1.01-2.27-1.58-6.23-4.68-11.79-7.87-17.27-3.7-6.35-9.87-9.65-16.3-12.52-.73-.33-1.66-.21-2.5-.26-4.47-.27-8.87.34-13.27,1.01-3.34.51-6.72.91-9.84,2.34-1.46.67-2.88,1.33-3.31,3.13-.2.85-.82,1.6-1.72,1.69-1.14.12-2.48.31-3.42-.16-1.24-.63-2.43-.64-3.67-.58-1.88.09-3.56-.45-5.13-1.39-1-.59-2.08-1.12-2.93-1.9-2.28-2.08-5.02-2.5-7.94-2.64-2.18-.1-4.16.73-6.24.99-4.13.53-7.58,2.53-10.99,4.66-.98.61-2.02,1.27-2.72,2.15-2.75,3.48-5.4,7.05-8.05,10.62-.44.59-.75,1.28-1.07,1.94-.79,1.62-1.59,3.23-2.3,4.88-.79,1.84-1.55,3.71-2.23,5.6-1.84,5.13-3.1,10.35-2.48,15.87,0,1.06-.02,2.12,0,3.18.05,1.69-.07,3.42.24,5.06.48,2.48,1.05,4.99,1.99,7.32,1.44,3.6,2.46,7.48,5.52,10.24.54.48.84,1.22,1.31,1.79.67.81,1.36,1.62,2.12,2.35,1.29,1.26,2.61,2.48,3.95,3.69.78.71,1.6,1.38,2.44,2.02,1.17.9,2.39,1.74,3.58,2.62,3.06,2.29,6.19,4.49,9.92,5.53,2.34.65,4.73,1.14,7.12,1.58,1.76.33,3.6.31,5.31.76,1.71.45,3.34.41,5.01.09,4.38-.83,8.79-1.28,13.25-.9.94.08,1.96.06,2.81.41,3.07,1.25,6.23,1.04,9.4.79,1.05-.08,2.09-.33,3.14-.45,8.53-.94,16.09-4.47,23.08-9.16,3.61-2.42,6.55-5.65,8.53-9.66,3.1-6.28,5.6-12.79,7.69-19.46.44-1.4.66-2.9.71-4.37.1-2.96-.08-5.93.01-8.89Z"/><path class="cls-7" d="M52.3,5.36c2.2-.83,4.32-.93,6.42-.94,2.12-.01,4.24.11,6.35.25.83.06,1.7.22,2.46.54,3.13,1.35,6.03,3.04,8.22,5.78,1.93,2.4,3.9,4.75,4.95,7.71.91,2.57,1.03,5.15.23,7.77-.01.05-.15.06-.42.15-2.57-4.4-4.93-9.06-9.4-12.03-1.48-.99-2.93-2.03-4.61-2.57-.71.65-.23,1.11.13,1.38.92.7,1.95,1.27,2.9,1.94,2.54,1.8,4.49,4.16,6.18,6.75,1.44,2.21,2.7,4.51,3.71,7.13-1.36.59-2.55.42-3.74,0-2.81-1-5.38-2.32-7.62-4.41-3.48-3.25-7.21-6.2-10.24-9.94-2.09-2.57-3.73-5.39-5.29-8.27-.14-.26-.12-.61-.23-1.24Z"/><path class="cls-2" d="M64.61,120.45c1.35.29,2.26.48,3.11.66.59,2.28.73,10.4.28,15.66-.45.25-.96.69-1.53.83-3.62.84-7.29,1.18-10.99.84-2.13-.2-4.1-1-5.94-2.07-1.62-.95-1.73-3.12-.18-4.2.58-.4,1.31-.73,2.01-.81,2-.23,3.99-.16,5.92.61,1.56.62,3.18,1.08,4.79,1.59.4.12.82.19,1.24.21,1.13.06,1.92-.51,1.92-1.61-.02-2.21-.04-4.44-.35-6.62-.23-1.59-.25-3.12-.26-5.09Z"/><path class="cls-4" d="M83.08,30.36c-.58-1.25-.71-2.53-.26-3.92.7-2.14.73-4.36.67-6.6-.1-4.03-.07-8.05-.06-12.08,0-.84.08-1.7.24-2.53.14-.72.43-1.4.71-2.25,2.14-.17,4.15-1.42,6.61-.61,0,.97.1,1.91-.02,2.82-.44,3.26-1.14,6.47-2.36,9.54-.52,1.31-.77,2.61-.8,4.01-.08,3.53-1.26,6.85-2.11,10.22-.41,1.59-.61,1.59-2.62,1.41Z"/><path class="cls-2" d="M102.58,121.31c1.27-.09,2.08-.15,2.81-.2.22.28.4.42.45.6.82,2.56.69,5.2.71,7.83.03,2.79,1.07,3.55,3.49,2.37,3.18-1.56,6.53-1.49,9.91-1.32.4.02.82.2,1.19.38.86.42,1.17,1.14,1.12,2.08-.05.84-.48,1.38-1.2,1.7-.38.16-.8.3-1.21.32-3.99.25-7.95.98-11.98.77-1.44-.08-2.26-.57-2.87-1.94-1.41-3.13-1.94-6.45-2.39-9.79-.11-.81-.02-1.65-.02-2.79Z"/><path class="cls-3" d="M124.2,64.39c1.56.09,2.53.03,3.44.21,2.54.52,3.45,3.07,1.76,5.07-.59.7-1.43,1.27-2.27,1.64-3.06,1.38-6.32,1.58-9.6,1.25-1.91-.19-2.72-1.34-2.63-3.27.1-2.1,1.41-3.76,3.63-4.18,2.06-.4,4.17-.54,5.66-.72Z"/><path class="cls-3" d="M43.88,67.99c.89,0,1.1-.01,1.31,0,1.59.13,3.27.17,3.87,2.08.7,2.21-.15,4.8-1.88,5.92-2.18,1.41-4.6,1.58-7.01.97-3.08-.78-3.92-4.86-1.46-7.12.81-.75,1.96-1.21,3.03-1.58.88-.29,1.87-.25,2.15-.28Z"/><path class="cls-5" d="M99.85,121.55c-6.08-1.33-12.04-2.06-18.09-1.48-1.58.15-3.12.58-4.69.81-1.99.29-3.99.49-6.17.75-.11.7-.31,1.4-.32,2.1-.03,3.6,0,7.21,0,10.81,0,.74.03,1.49-.05,2.22-.15,1.5-.8,2.6-2.43,2.91-1.65.31-3.27.84-4.93.99-3.58.32-7.2.71-10.71-.45-1.59-.52-3.12-1.28-4.62-2.04-1.21-.62-1.87-1.68-1.82-3.11.02-.63-.02-1.27.01-1.91.08-1.53.84-2.62,2.31-3.09,4.25-1.37,8.48-1.83,12.65.3.45.23.94.36,1.34.51.94-.78.67-1.69.61-2.48-.2-2.62-.5-5.24-.79-8.08-.86-.71-2.19-.82-3.38-1.06-4.81-.99-8.81-3.53-12.67-6.38-1.27-.94-2.57-1.86-3.82-2.83-.92-.71-1.81-1.47-2.67-2.25-1.26-1.14-2.51-2.28-3.7-3.49-.96-.97-1.84-2.03-2.73-3.08-.41-.48-.71-1.07-1.14-1.53-3.62-3.83-5.29-8.57-6.4-13.58-.38-1.71-.97-3.32-2.61-4.16-3.31-1.71-5.54-4.51-7.76-7.35-.52-.67-1.03-1.35-1.59-1.98-.93-1.05-1.63-2.21-2.06-3.55-.19-.6-.41-1.21-.7-1.77-1.35-2.57-3.27-4.45-6.35-4.6-1.58-.08-2.83-.82-4.07-1.62-.28-.18-.55-.7-.51-1.01.08-.61.69-.82,1.22-.74.81.12,1.61.38,2.61.64,0-.8-.66-1.03-.96-1.45-.37-.52-.78-1.01-1.1-1.55-.36-.61-.96-1.23-.32-2,.47-.56,1.22-.37,2.18.52.38.35.75.7,1.14,1.04.05.04.17,0,.36-.01-.25-1.14-.62-2.25-.72-3.39-.07-.8.16-1.64.36-2.44.05-.19.51-.4.78-.39.27,0,.67.21.77.43.21.47.27,1.01.39,1.52.33,1.31.53,2.67,1.61,3.99.41-.58.87-.94.92-1.35.16-1.37.16-2.75.24-4.12.04-.63.07-1.27.15-1.9.1-.71.72-1.4,1.16-1.28.71.19.98.77,1.04,1.44.06.74.08,1.48.12,2.22.08,1.15.16,2.3.24,3.3.8.72,1.4.47,1.7-.15.45-.95.67-2.01,1.1-2.97.14-.3.64-.63.96-.61.33.02.83.38.92.7.17.58.25,1.28.09,1.84-.97,3.37-1.92,6.76-5.15,8.95.79,2.78,1.27,5.69,3,7.98,2.46,3.25,4.8,6.68,8.24,8.93.85-.26.74-.85.74-1.35.02-3.29-.04-6.57.04-9.86.04-1.58.18-3.19.54-4.72,1.21-5.17,2.83-10.19,5.25-14.95,1.58-3.12,2.94-6.35,5.42-8.92.14-.15.24-.35.33-.54,1.67-3.29,4.16-5.75,7.2-7.87,3.16-2.2,6.4-4.15,10.04-5.34,3.21-1.05,6.44-2.07,9.86-2.23.39-.64-.1-.95-.47-1.3-3.99-3.85-7.55-8-9.96-13.07-.66-1.38-1.07-2.73-.88-4.33,1.86-1.44,4.12-1.69,6.28-1.87,2.63-.22,5.29-.08,7.94.02.93.03,1.92.25,2.78.61,3.44,1.45,6.68,3.21,9.07,6.22,1.11,1.4,2.3,2.74,3.7,4.39.21-.78.42-1.22.43-1.67.05-1.59-.08-3.19.07-4.77.16-1.68.47-3.35.88-4.98.3-1.2,1.11-1.99,2.5-2.05.84-.04,1.66-.33,2.5-.42,1.15-.13,2.32-.27,3.48-.24,1.77.05,2.31.58,2.34,2.29.03,1.37,0,2.77-.21,4.12-.44,2.93-1.25,5.78-2.09,8.63-.95,3.23-1.53,6.58-2.25,9.88-.06.29.04.62.06.9.23.09.45.26.57.21,3.3-1.53,6.9-1.99,10.36-2.93,4.99-1.37,10.08-1.16,15.16-1.14,1.64,0,3.07.72,4.49,1.45,1.12.59,2.26,1.14,3.4,1.7,2.58,1.27,4.87,2.95,6.98,4.9,2.75,2.55,4.95,5.49,6.53,8.9.18.38.4.76.67,1.08,2.93,3.46,4.57,7.57,5.99,11.78.92,2.71,1.69,5.46,2.63,8.17.53,1.53.76,3.06.74,4.67-.06,4.03-.08,8.05-.11,12.08,0,.39.05.78.08,1.21,1.12.14,1.72-.54,2.32-1.07,2.41-2.11,4.45-4.57,5.89-7.43,1.57-3.12,2.98-6.32,3.63-9.8.31-1.65.79-3.26,1.16-4.8-2.75-2.81-3.24-6.28-3.72-9.73-.1-.69.17-1.45.38-2.15.07-.23.45-.48.71-.51.26-.03.66.14.8.35.29.43.47.93.64,1.42.34.98.64,1.97,1.11,3.46.4-.8.68-1.12.7-1.45.07-1.38.05-2.75.09-4.13.02-.52.01-1.09.21-1.56.14-.33.62-.75.9-.71.45.06,1.08.37,1.22.73.26.66.23,1.44.29,2.18.07.91.09,1.83.13,2.7.77.17.84-.32,1.02-.68.59-1.24,1.13-2.5,1.77-3.72.32-.62.94-.91,1.61-.62.71.31.72,1.02.55,1.63-.23.81-.63,1.57-.89,2.37-.18.57-.25,1.18-.41,1.99,1.28-.61,2.3-1.11,3.29-1.58,1.15,1.05,1.26,1.31.69,2.07-.69.91-1.47,1.76-2.25,2.68.97.26,1.87.46,2.73.76.23.08.51.51.47.73-.07.37-.29.87-.59.99-.56.24-1.23.38-1.84.33-1.48-.11-2.67.42-3.8,1.3-.92.71-1.91,1.32-3.04,2.09-.43,1.59-.92,3.32-1.37,5.05-1.22,4.76-3,9.25-5.91,13.26-2.15,2.96-4.73,5.45-7.94,7.2-1.44.78-2.12,1.89-2.61,3.37-1.88,5.63-4.02,11.15-6.69,16.47-2.41,4.78-6.05,8.41-10.42,11.34-5.32,3.56-11.18,6-17.28,7.89-.39.12-.79.22-1.12.32-.77,1.64.49,2.96.41,4.42-.07,1.36.02,2.73.04,4.29.82-.16,1.43-.23,2-.4,2.67-.82,5.41-.94,8.18-.81.63.03,1.28.08,1.87.27,3.51,1.11,4,3.16,3.13,6.46-.19.71-.97,1.47-1.67,1.79-1.92.87-3.89,1.67-6.07,1.67-2.97,0-5.94-.05-8.9.03-2.46.07-3.96-1.12-4.88-3.29-1.59-3.74-2.39-7.66-2.66-11.71-.04-.61-.12-1.22-.19-1.8ZM26.3,72.53c0,1.06-.02,2.12,0,3.18.05,1.69-.07,3.42.24,5.06.48,2.48,1.05,4.99,1.99,7.32,1.44,3.6,2.46,7.48,5.52,10.24.54.48.84,1.22,1.31,1.79.67.81,1.36,1.62,2.12,2.35,1.29,1.26,2.61,2.48,3.95,3.69.78.71,1.6,1.38,2.44,2.02,1.17.9,2.39,1.74,3.58,2.62,3.06,2.29,6.19,4.49,9.92,5.53,2.34.65,4.73,1.14,7.12,1.58,1.76.33,3.6.31,5.31.76,1.71.45,3.34.41,5.01.09,4.38-.83,8.79-1.28,13.25-.9.94.08,1.96.06,2.81.41,3.07,1.25,6.23,1.04,9.4.79,1.05-.08,2.09-.33,3.14-.45,8.53-.94,16.09-4.47,23.08-9.16,3.61-2.42,6.55-5.65,8.53-9.66,3.1-6.28,5.6-12.79,7.69-19.46.44-1.4.66-2.9.71-4.37.1-2.96-.08-5.93.01-8.89.09-3.02-.5-5.9-1.35-8.75-.18-.6-.38-1.28-.79-1.69-.67-.66-.81-1.45-1.01-2.27-1.58-6.23-4.68-11.79-7.87-17.27-3.7-6.35-9.87-9.65-16.3-12.52-.73-.33-1.66-.21-2.5-.26-4.47-.27-8.87.34-13.27,1.01-3.34.51-6.72.91-9.84,2.34-1.46.67-2.88,1.33-3.31,3.13-.2.85-.82,1.6-1.72,1.69-1.14.12-2.48.31-3.42-.16-1.24-.63-2.43-.64-3.67-.58-1.88.09-3.56-.45-5.13-1.39-1-.59-2.08-1.12-2.93-1.9-2.28-2.08-5.02-2.5-7.94-2.64-2.18-.1-4.16.73-6.24.99-4.13.53-7.58,2.53-10.99,4.66-.98.61-2.02,1.27-2.72,2.15-2.75,3.48-5.4,7.05-8.05,10.62-.44.59-.75,1.28-1.07,1.94-.79,1.62-1.59,3.23-2.3,4.88-.79,1.84-1.55,3.71-2.23,5.6-1.84,5.13-3.1,10.35-2.48,15.87ZM52.3,5.36c.11.63.09.98.23,1.24,1.56,2.89,3.21,5.7,5.29,8.27,3.02,3.74,6.76,6.69,10.24,9.94,2.24,2.09,4.8,3.41,7.62,4.41,1.19.42,2.38.59,3.74,0-1.01-2.62-2.27-4.92-3.71-7.13-1.69-2.59-3.63-4.95-6.18-6.75-.95-.67-1.97-1.24-2.9-1.94-.36-.27-.84-.74-.13-1.38,1.68.54,3.13,1.59,4.61,2.57,4.47,2.97,6.83,7.63,9.4,12.03.27-.09.41-.1.42-.15.81-2.61.68-5.2-.23-7.77-1.05-2.96-3.02-5.3-4.95-7.71-2.2-2.74-5.09-4.42-8.22-5.78-.76-.33-1.63-.49-2.46-.54-2.11-.15-4.23-.26-6.35-.25-2.1.01-4.22.11-6.42.94ZM64.61,120.45c0,1.98.03,3.51.26,5.09.32,2.18.34,4.41.35,6.62,0,1.1-.79,1.67-1.92,1.61-.42-.02-.84-.09-1.24-.21-1.6-.51-3.23-.97-4.79-1.59-1.93-.77-3.92-.85-5.92-.61-.7.08-1.43.41-2.01.81-1.55,1.08-1.44,3.25.18,4.2,1.84,1.07,3.8,1.87,5.94,2.07,3.71.34,7.38,0,10.99-.84.57-.13,1.08-.58,1.53-.83.45-5.26.32-13.37-.28-15.66-.86-.18-1.77-.38-3.11-.66ZM83.08,30.36c2.01.18,2.22.19,2.62-1.41.86-3.37,2.04-6.69,2.11-10.22.03-1.4.28-2.71.8-4.01,1.21-3.07,1.91-6.28,2.36-9.54.12-.91.02-1.85.02-2.82-2.45-.8-4.46.44-6.61.61-.27.85-.57,1.54-.71,2.25-.16.83-.24,1.68-.24,2.53-.01,4.03-.05,8.05.06,12.08.06,2.24.02,4.46-.67,6.6-.45,1.39-.32,2.67.26,3.92ZM102.58,121.31c0,1.14-.09,1.98.02,2.79.45,3.34.98,6.66,2.39,9.79.61,1.37,1.43,1.86,2.87,1.94,4.03.21,7.99-.52,11.98-.77.41-.03.83-.16,1.21-.32.73-.32,1.15-.86,1.2-1.7.05-.94-.26-1.66-1.12-2.08-.37-.18-.79-.36-1.19-.38-3.38-.17-6.72-.24-9.91,1.32-2.42,1.19-3.46.43-3.49-2.37-.02-2.63.11-5.28-.71-7.83-.06-.18-.24-.32-.45-.6-.73.05-1.54.11-2.81.2Z"/><path class="cls-5" d="M76.85,73.26c2.64-.11,5.28-.25,7.92-.33,5.09-.15,10.09-1.03,15.12-1.69,1.35-.18,2.74-.23,4.1-.22.81,0,1.39.6,1.43,1.43.22,4.96.56,9.94-1.07,14.77-.62,1.85-1.63,3.44-3.21,4.61-2.98,2.2-6.11,4.08-9.65,5.37-5.06,1.85-10.17,1.93-15.3.81-4.1-.89-7.65-2.98-10.68-5.93-1.48-1.44-2.54-3.12-3.19-5.04-1.12-3.33-1.7-6.75-1.41-10.29.17-2.01.68-2.66,2.67-2.84,2.2-.2,4.41-.21,6.62-.29,2.22-.07,4.44-.12,6.66-.19,0-.06,0-.13,0-.19ZM63.8,75.47c-.16.65-.34,1.14-.38,1.64-.19,2.34.21,4.62.66,6.91.65,3.29,2.34,5.83,4.99,7.84,5.22,3.96,11.19,4.99,17.46,4.08,5-.72,9.43-3.07,13.38-6.23,1.1-.88,1.75-2.06,2.23-3.4,1.49-4.19,1.51-8.5,1.13-12.85,0-.09-.13-.16-.33-.39-1.12-.31-2.33-.08-3.47.31-.54.75-1.03,1.43-1.52,2.12-2.6,3.63-6.22,5.29-10.6,5.37-3.18.06-6.35-.04-9.53.02-1.43.03-2.75-.24-3.95-.95-1.89-1.13-3.99-1.95-5.53-3.66-.38-.42-1.05-.71-1.63-.79-.92-.13-1.87-.04-2.9-.04ZM71.28,75.64c2.38,2.26,4.66,3.26,7.48,3.14,2.85-.12,5.71-.1,8.57-.01,2.23.07,4.15-.79,6-1.77,1.07-.56,2.04-1.42,2.64-2.94-8.24.53-16.19,1.04-24.7,1.59Z"/><path class="cls-5" d="M62.08,61.45c-.21.54-.35,1.17-.68,1.67-.52.78-1.35.94-2.24.73-.69-.16-1.04-.66-1.25-1.29-.3-.94-.26-1.86.14-2.77.35-.81,1.09-1.27,2.01-1.24.86.03,1.32.6,1.6,1.31.19.48.27,1,.43,1.6Z"/><path class="cls-5" d="M104.3,59.46c-.02,1.06-.59,1.79-1.4,1.83-1,.04-1.89-.68-1.99-1.65-.03-.31-.01-.64.06-.94.27-1.04,1.19-1.87,1.95-1.79.65.07,1.2.88,1.33,1.95.02.21.03.42.04.6Z"/><path class="cls-6" d="M63.8,75.47c1.03,0,1.98-.1,2.9.04.58.08,1.25.37,1.63.79,1.54,1.7,3.63,2.52,5.53,3.66,1.2.72,2.52.98,3.95.95,3.18-.06,6.35.04,9.53-.02,4.38-.08,8-1.75,10.6-5.37.49-.68.98-1.37,1.52-2.12,1.15-.39,2.36-.62,3.47-.31.2.23.33.31.33.39.38,4.35.36,8.65-1.13,12.85-.48,1.34-1.13,2.52-2.23,3.4-3.96,3.16-8.38,5.5-13.38,6.23-6.27.91-12.24-.12-17.46-4.08-2.64-2-4.34-4.55-4.99-7.84-.45-2.29-.85-4.57-.66-6.91.04-.5.23-.99.38-1.64Z"/><path class="cls-1" d="M71.28,75.64c8.5-.55,16.46-1.06,24.7-1.59-.6,1.52-1.57,2.38-2.64,2.94-1.86.98-3.78,1.84-6,1.77-2.85-.09-5.71-.11-8.57.01-2.82.12-5.11-.88-7.48-3.14Z"/></g></svg>