<?xml version="1.0" encoding="UTF-8"?><svg xmlns="http://www.w3.org/2000/svg" viewBox="0 0 152.65 173.4"><defs><style>.cls-1{fill:#ffcf24;mix-blend-mode:multiply;}.cls-1,.cls-2,.cls-3{fill-rule:evenodd;}.cls-4{isolation:isolate;}.cls-2{fill:#4f251f;}.cls-5{fill:#a4db00;}.cls-3{fill:#9ca124;}</style></defs><g class="cls-4"><g id="Layer_2"><g id="OBJECTS"><path class="cls-1" d="M127.67,159.59c-2.55,2.36-5.47,2.3-8.46,1.97-3.13-.34-5.68-1.49-6.78-4.74-1.38-1.61-1.84-3.63-2.47-5.58-1.18-3.65-2.35-7.3-3.52-10.95-.11-.34-.19-.68-.29-1.05.85-1.58,2.42-2.27,3.93-3.41.34.89.66,1.62.89,2.37,1.54,5.04,3.04,10.08,4.58,15.12.39,1.28.79,1.6,2.08,1.66,1.16.05,2.33.08,3.48.01,1.55-.1,3.02.22,4.48.64,1.89.54,2.21,1.02,2.21,3.08,0,.26-.07.53-.13.88Z"/><path class="cls-1" d="M65.7,147.95c-.3,1.66-.58,3.23-.89,4.8-.41,2.1-.86,4.2-1.26,6.31-.13.7-.3,1.43-.21,2.12.2,1.65-.21,3.2-.53,4.77-.73,3.55-4.02,5.83-7.56,5.12-1.44-.29-3.08-.22-4.2-1.53-.33-1.75.39-2.83,2.02-3.55,1.87-.83,3.62-1.93,5.49-2.77,1.08-.49,1.46-1.22,1.38-2.31-.26-3.68.17-7.32.74-10.94.15-.95.42-1.89.64-2.88,1.59-.13,2.9.33,4.37.85Z"/><path class="cls-5" d="M126.85,66.35c-1.5-8.18-4.38-15.84-8.08-23.25-3.81-7.62-8.88-14.28-15.04-20.12-1.36-1.29-2.88-2.42-4.45-3.45-3.75-2.47-7.75-4.46-11.89-6.2-2.64-1.11-5.21-2.37-7.81-3.57-.64-.3-1.27-.62-1.78-.86-1.02.51-1.88,1-2.78,1.37-.57.24-1.04-.04-1.33-.69.3-.28.61-.59.95-.86.39-.32.81-.61,1.34-1-1-1.15-1.95-2.09-2.72-3.17-1.54-2.13-3.68-2.62-6.46-2.61.74.68,1.29,1.1,1.71,1.62.17.21.17.66.08.95-.05.18-.45.4-.64.36-1.66-.33-3.31-.71-4.95-1.11-.2-.05-.33-.37-.51-.61.18-.24.32-.45.48-.65.15-.18.69-.01.53-.46-1.05,0-2.04-.08-3.01.02-1.15.11-2.39,1.19-2.26,2.26.19,1.49-.46,2.75-.75,4.08,1,1.2,3.12.97,3.37,2.98-2.17.44-3.9-.89-5.6-1.39-1.69,1.24-3.17,2.39-4.72,3.45-2.82,1.93-5.92,3.34-9.05,4.67-3,1.27-5.7,3-8.13,5.16-1.67,1.49-3.39,2.93-5.04,4.45-2.64,2.43-5.18,4.96-7.09,8.04-3.6,5.79-6.72,11.84-9.21,18.19-1.78,4.54-2.76,9.25-2.58,14.17.08,2.24.08,4.48.18,6.72.46,10.38,2.48,20.42,6.42,30.05,2.59,6.31,5.53,12.42,9.33,18.11,3.24,4.85,7.27,8.81,12.35,11.73,2.31,1.34,4.8,2.41,6.83,4.22.38.34.94.5,1.43.71,5.84,2.52,11.74,4.86,18.1,5.73,2.21.31,4.44.48,6.66.74,2.66.31,5.32.67,7.99.96.51.05,1.06-.06,1.57-.18,1.29-.28,2.58-.45,3.9-.26-.02.18,0,.32-.04.34-.95.46-1.91.92-2.86,1.37.04.09.05.18.11.24,2.35,2.53,5.31,2.68,8.42,2.04.9-.18,1.54-.9,1.96-1.73.24-.48.42-.99.58-1.5.65-2.13,2.14-3.41,4.11-4.29.89-.4,1.8-.86,2.53-1.49,2.76-2.39,5.97-4.24,8.29-7.16,2.11-2.66,4.45-5.14,6.69-7.7.53-.6,1-1.27,1.6-1.8,1.72-1.52,2.9-3.41,3.78-5.48,1.87-4.38,3.18-8.95,4.19-13.57,1.27-5.77,2.18-11.61,3.28-17.41,1.4-7.39,1.35-14.76-.01-22.16Z"/><path class="cls-3" d="M104.38,76c-1.13-.07-2.12-.94-2.11-1.79,0-.82.6-1.73,1.25-1.89.83-.2,1.35.26,1.79.89.1.15.23.28.33.42.34.46.49.96.2,1.5-.33.6-.85.9-1.46.88Z"/><path class="cls-3" d="M107.73,83.17c-.11.32-.13.62-.29.81-.34.41-.73.79-1.13,1.14-.77.67-1.8.29-2.02-.73-.18-.8.14-1.64.82-2.12.55-.39,1.39-.39,2,.08.27.2.43.54.62.81Z"/><path class="cls-3" d="M108.81,66.2c.96,0,1.61.21,1.96.97.35.75.03,1.4-.32,2.02-.27.48-1.18.61-1.7.31-.72-.41-1.18-2.21-.67-2.87.19-.25.58-.35.72-.43Z"/><path class="cls-3" d="M119.3,73.24c-.01.77-.61,1.42-1.32,1.42-.82,0-1.4-.7-1.37-1.65.02-.72.49-1.22,1.14-1.24.9-.02,1.56.6,1.55,1.46Z"/><path class="cls-3" d="M117.06,80.35c.52-.65.78-1.11,1.17-1.41.22-.17.74-.23.95-.08.3.22.6.65.63,1.01.08,1.17-.8,1.67-1.88,1.11-.23-.12-.42-.3-.86-.62Z"/><path class="cls-3" d="M110.82,76.18c.84-.11,1.4.41,1.46,1.11.04.52-.42,1.1-.9,1.14-.61.05-1.32-.53-1.21-1.13.08-.44.48-.83.65-1.12Z"/><path class="cls-3" d="M38.39,78.73c-.14.84-1,1.57-1.84,1.57-.09,0-.18-.01-.26-.03-.75-.19-1.01-1.14-.61-2.23.29-.8.95-1.17,1.6-.91.68.28,1.2,1.03,1.11,1.6Z"/><path class="cls-3" d="M37.54,89.48c-.06.22-.11.58-.27.89-.26.5-.67.81-1.29.71-.62-.11-.93-.56-.92-1.12,0-.51.17-1.04.36-1.53.23-.59.82-.73,1.32-.53.34.13.57.58.79.93.08.12.01.34.01.65Z"/><path class="cls-3" d="M30.78,81.44c.21.07.53.09.68.26.83.9.55,2.55-.57,3.2-.2.11-.74-.04-.88-.24-.41-.57-.2-2.47.26-2.97.11-.12.31-.15.51-.24Z"/><path class="cls-3" d="M42.8,84.19c.02.52-.42.95-1.02.98-.72.03-1.27-.38-1.33-.99-.05-.6.54-1.2,1.15-1.17.63.03,1.17.57,1.19,1.18Z"/><path class="cls-3" d="M47.33,88.41c-.28.21-.63.63-1.07.75-.59.16-1.14-.43-1.22-1.12-.05-.47.29-.94.71-.97.75-.05,1.55.51,1.58,1.34Z"/><path class="cls-3" d="M49.14,79.11c.03.73-.43,1.2-.99,1.24-.51.04-.86-.2-.98-.69-.14-.59.48-1.28,1.11-1.15.36.07.65.44.86.6Z"/><path class="cls-2" d="M130.81,78.47c1.65.3,3.05.58,4.45.82,1.17.2,2.11-.26,2.83-1.16.28-.35.54-.72.77-1.1,1.92-3.25,3.61-6.58,4.11-10.41.3-2.3.88-4.57,1.29-6.86.16-.87.22-1.76.34-2.69-1.39-1.22-2.79-2.33-4.04-3.58-1.13-1.14-2.12-2.42-3.1-3.69-.53-.69-.42-.98.29-2.16,1.38.37,1.75,1.99,3.03,2.51.59-.32.13-.75.06-1.1-.25-1.14-.57-2.26-.8-3.4-.04-.21.12-.62.29-.7.29-.13.71-.18,1-.07.73.29.98,1,1.21,1.68.36,1.09.73,2.17,1.13,3.38.82-1.06.75-2.18,1.02-3.21.35-1.36.99-2.13,1.56-1.82.88.48.73,1.33.58,2.13-.17.97-.36,1.94-.53,2.91-.12.68.04,1.23,1,1.48.24-.51.54-1.02.73-1.57.2-.59.25-1.23.45-1.82.18-.52.5-.98,1.14-.96.47.02.84.55.79,1.22-.04.62-.15,1.24-.26,1.86-.1.61-.23,1.21-.39,2.06.81-.14,1.46-.3,2.12-.35.5-.04.95.76.67,1.2-.23.36-.52.77-.88.96-.95.49-1.93.92-2.94,1.29-1.12.41-1.68,1.04-1.77,2.34-.14,2.04-.56,4.07-.91,6.1-.23,1.32-.62,2.62-.78,3.95-.48,4.04-2.5,7.43-4.48,10.84-.31.54-.7,1.05-1.13,1.5-1.18,1.24-2.63,1.84-4.36,1.58-.97-.15-1.93-.38-2.9-.54-.51-.08-1.03-.08-1.68-.13-.15,1.16-.28,2.22-.42,3.27-.7,4.88-1.52,9.71-2.82,14.49-1.15,4.22-1.84,8.57-2.76,12.86-1,4.6-2.83,8.85-5.43,12.77-1.64,2.47-3.46,4.79-5.57,6.88-.57.56-1.09,1.18-1.59,1.82-.27.35-.44.77-.66,1.16,1.8,3.65,2.75,7.56,3.99,11.37.75,2.29,1.49,4.59,2.24,6.93,1.26.53,2.53.31,3.74.26,1.74-.07,3.39.28,5.01.79,2.74.86,3.57,2.05,3.58,4.93,0,.27-.01.54,0,.81.05,1.31-.35,2.28-1.79,2.57-.43.09-.85.3-1.23.53-2.71,1.63-5.64,1.55-8.6,1.11-1.5-.22-2.98-.59-4.47-.88-.84-.16-1.43-.62-1.94-1.31-1.22-1.68-2.26-3.4-2.82-5.45-1.29-4.66-2.7-9.28-4.07-13.91-.12-.41-.35-.78-.63-1.36-2.62,1.79-5.2,3.39-7.57,5.27-1.16.91-2.11,2.24-2.79,3.56-1.66,3.23-4.36,4.01-7.64,3.67-2.55-.27-4.92-.99-6.71-2.99-.5-.56-1.09-.89-1.85-.96-.53-.05-1.05-.21-1.59-.28-2.04-.25-4.08-.5-6.13-.7-.7-.07-1.41-.01-2.17-.01-.61.86-.6,1.88-.79,2.81-.58,2.81-1.08,5.63-1.6,8.45-.1.53-.29,1.09-.21,1.59.31,1.83-.31,3.55-.55,5.32-.63,4.7-6.14,7.99-10.19,6.87-1.64-.45-3.31-.72-4.84-1.54-.92-.49-1.3-1.18-1.15-2.18.09-.62.19-1.24.28-1.86.24-1.55,1.05-2.6,2.54-3.18,1.33-.52,2.63-1.12,3.93-1.73.8-.37,1.58-.81,2.28-1.17.12-2.68.12-5.19.37-7.67.24-2.39.72-4.75,1.1-7.2-3.79-1.42-7.46-2.8-11.13-4.18-.17-.06-.34-.11-.51-.18-6.49-2.68-12.65-5.93-17.96-10.6-2.43-2.14-4.37-4.73-6.18-7.41-4.79-7.11-8.27-14.85-11.18-22.87-.36-1-.72-2-1.14-3.19-.58.4-1.02.65-1.4.98-1.41,1.25-2.76,2.56-4.19,3.78-2.42,2.05-2.98,4.83-2.99,7.75,0,.91.47,1.94,1.02,2.7,1.2,1.66,2.59,3.19,3.93,4.76.23.27.52.5.83.68,2.8,1.59,5.59,3.2,8.89,3.51,1.45.13,2.8.57,4.03,1.36.15.1.39.14.45.27.14.3.33.69.25.96-.08.25-.52.59-.75.55-.69-.11-1.36-.37-2.02-.6-.31-.11-.6-.28-1.11-.17.24.3.47.6.71.89.9,1.11,1.82,2.21,2.7,3.34.29.37.39.9-.08,1.18-.34.2-.87.3-1.23.19-.38-.12-.71-.51-.99-.85-.51-.62-.95-1.3-1.47-1.91-.2-.23-.56-.31-1.08-.58.05.59,0,.95.12,1.25.6,1.5,1.4,2.89,2.56,4.05.29.29.44.75.56,1.16.12.41-.39.94-.78.88-.92-.14-1.75-.52-2.25-1.32-.66-1.06-1.27-2.15-1.84-3.26-.31-.61-.51-1.28-.89-2.24-1.02,2.68.85,4.54,1.03,6.56-.57.63-1.08.47-1.52.12-1.47-1.15-2.53-2.53-2.41-4.53.03-.62,0-1.24,0-2.11-.5.36-.79.68-1.14.79-.7.22-1.45-.45-1.38-1.2.09-1.03.54-1.9,1.32-2.56.47-.4,1.01-.71,1.45-1.01.08-.79-.5-.79-.86-.91-4.44-1.53-7.1-5.02-9.5-8.74-.99-1.53-1.37-3.29-.8-5.15.18-.59.21-1.24.33-1.85.44-2.17,1.45-4.01,3.15-5.49,2.16-1.88,4.27-3.82,6.52-5.83-.12-.75-.2-1.54-.39-2.3-1.5-6.11-2.31-12.32-2.53-18.61-.06-1.7-.12-3.4-.21-5.1-.3-5.73.71-11.24,2.81-16.56,2.53-6.44,5.69-12.57,9.35-18.43,3.18-5.09,13.12-14.31,18.38-17.08,1.66-.88,3.41-1.59,5.13-2.33,3.22-1.4,6.23-3.14,9.09-5.17,1.34-.95,2.43-2.05,3.11-3.6.65-1.47,1.5-2.85,2.28-4.26.6-1.1,1.56-1.82,2.79-1.86,3.04-.11,6.07-.5,9.12-.18,2.17.23,3.96.99,5.32,2.73.55.7,1.13,1.41,1.79,2,.93.83,1.86,1.73,2.94,2.3,2.7,1.4,5.43,2.75,8.24,3.91,4.4,1.82,8.68,3.85,12.69,6.42,1.73,1.11,3.43,2.31,4.94,3.7,6.17,5.69,11.35,12.16,15.29,19.62,4.43,8.37,7.83,17.09,9.29,26.49.43,2.74.64,5.51.92,8.27.09.88.11,1.77.18,2.91ZM81.33,148.35c.04.09.05.18.11.24,2.35,2.53,5.31,2.68,8.42,2.04.9-.18,1.54-.9,1.96-1.73.24-.48.42-.99.58-1.5.65-2.13,2.14-3.41,4.11-4.29.89-.4,1.8-.86,2.53-1.49,2.76-2.39,5.97-4.24,8.29-7.16,2.11-2.66,4.45-5.14,6.69-7.7.53-.6,1-1.27,1.6-1.8,1.72-1.52,2.9-3.41,3.78-5.48,1.87-4.38,3.18-8.95,4.19-13.57,1.27-5.77,2.18-11.61,3.28-17.41,1.4-7.39,1.35-14.76-.01-22.16-1.5-8.18-4.38-15.84-8.08-23.25-3.81-7.62-8.88-14.28-15.04-20.12-1.36-1.29-2.88-2.42-4.45-3.45-3.75-2.47-7.75-4.46-11.89-6.2-2.64-1.11-5.21-2.37-7.81-3.57-.64-.3-1.27-.62-1.78-.86-1.02.51-1.88,1-2.78,1.37-.57.24-1.04-.04-1.33-.69.3-.28.61-.59.95-.86.39-.32.81-.61,1.34-1-1-1.15-1.95-2.09-2.72-3.17-1.54-2.13-3.68-2.62-6.46-2.61.74.68,1.29,1.1,1.71,1.62.17.21.17.66.08.95-.05.18-.45.4-.64.36-1.66-.33-3.31-.71-4.95-1.11-.2-.05-.33-.37-.51-.61.18-.24.32-.45.48-.65.15-.18.69-.01.53-.46-1.05,0-2.04-.08-3.01.02-1.15.11-2.39,1.19-2.26,2.26.19,1.49-.46,2.75-.75,4.08,1,1.2,3.12.97,3.37,2.98-2.17.44-3.9-.89-5.6-1.39-1.69,1.24-3.17,2.39-4.72,3.45-2.82,1.93-5.92,3.34-9.05,4.67-3,1.27-5.7,3-8.13,5.16-1.67,1.49-3.39,2.93-5.04,4.45-2.64,2.43-5.18,4.96-7.09,8.04-3.6,5.79-6.72,11.84-9.21,18.19-1.78,4.54-2.76,9.25-2.58,14.17.08,2.24.08,4.48.18,6.72.46,10.38,2.48,20.42,6.42,30.05,2.59,6.31,5.53,12.42,9.33,18.11,3.24,4.85,7.27,8.81,12.35,11.73,2.31,1.34,4.8,2.41,6.83,4.22.38.34.94.5,1.43.71,5.84,2.52,11.74,4.86,18.1,5.73,2.21.31,4.44.48,6.66.74,2.66.31,5.32.67,7.99.96.51.05,1.06-.06,1.57-.18,1.29-.28,2.58-.45,3.9-.26-.02.18,0,.32-.04.34-.95.46-1.91.92-2.86,1.37ZM127.67,159.59c.05-.36.13-.62.13-.88,0-2.06-.32-2.53-2.21-3.08-1.46-.42-2.93-.74-4.48-.64-1.16.07-2.32.04-3.48-.01-1.3-.06-1.69-.38-2.08-1.66-1.53-5.04-3.04-10.08-4.58-15.12-.23-.75-.55-1.47-.89-2.37-1.51,1.13-3.08,1.83-3.93,3.41.1.37.18.72.29,1.05,1.17,3.65,2.34,7.31,3.52,10.95.63,1.94,1.09,3.96,2.47,5.58,1.09,3.25,3.65,4.4,6.78,4.74,2.99.33,5.91.4,8.46-1.97ZM65.7,147.95c-1.47-.52-2.78-.97-4.37-.85-.22.99-.5,1.93-.64,2.88-.57,3.62-1,7.26-.74,10.94.08,1.09-.3,1.82-1.38,2.31-1.87.84-3.62,1.94-5.49,2.77-1.63.72-2.35,1.8-2.02,3.55,1.12,1.3,2.75,1.24,4.2,1.53,3.54.7,6.83-1.58,7.56-5.12.32-1.57.73-3.12.53-4.77-.08-.69.08-1.43.21-2.12.4-2.11.85-4.2,1.26-6.31.31-1.57.58-3.14.89-4.8Z"/><path class="cls-2" d="M58.56,81.95c-.17-.73-.43-1.67-.59-2.63-.08-.47.2-.91.69-1,.31-.05.67.11.99.23.15.06.29.23.36.39.91,2.12,2.89,2.86,4.81,3.54,2.02.72,4.14,1.13,6.2,1.73,3.25.93,6.39.54,9.45-.74,2.16-.9,4.13-2.16,5.86-3.75.52-.48.98-1.05,1.39-1.62.52-.73.99-1.5,1.42-2.28.32-.58.69-1.16,1.37-1.12.95.05,1.68.58,2.07,1.48.21.5-.05,1.06-.43,1.13-1.37.23-1.88,1.31-2.47,2.29-.87,1.43-2.18,2.38-3.47,3.32-4.04,2.93-8.49,4.61-13.58,3.93-1.23-.17-2.45-.5-3.66-.82-1.38-.37-2.76-.77-4.11-1.25-1-.35-1.96-.84-2.93-1.27-.96-.43-1.91-.89-3.36-1.56Z"/><path class="cls-2" d="M85.7,61.39c.18-.8.29-1.6.56-2.34.37-1.05,1.35-1.41,2.38-1.01.71.28,1.18.82,1.45,1.48.49,1.21.36,2.44-.18,3.61-.35.76-1.12,1.14-1.99,1.03-.94-.12-1.72-.5-2.02-1.47-.13-.41-.14-.87-.2-1.3Z"/><path class="cls-2" d="M54.13,62.93c-.15.68-.27,1.2-.37,1.73-.12.66-.37,1.21-1.11,1.34-.94.17-1.88-.27-2.29-1.03-.52-.96-.31-3.25.38-4.1.72-.88,2.25-.83,2.75.16.31.62.45,1.34.63,1.9Z"/><path class="cls-2" d="M47.65,137.71c-2.03.46-2.64-1.08-3.54-2.05-.39-.43-.77-1.06,0-1.58.17.04.4.02.49.12.99,1.12,1.96,2.25,3.04,3.51Z"/><path class="cls-2" d="M52.19,137.61c-.33-.17-.75-.24-.91-.48-.52-.81-.98-1.66-1.4-2.53-.08-.17.07-.49.19-.7.06-.09.34-.15.46-.09,1.29.63,1.91,2.02,1.66,3.79Z"/><path class="cls-2" d="M51.07,130.41c-1.53-.05-2.78-.58-3.62-1.83-.08-.12-.1-.37-.03-.5.06-.13.33-.29.41-.25,1.22.65,2.5,1.23,3.25,2.58Z"/><path class="cls-2" d="M33.97,122.08c-1.4-.33-1.75-1.19-1.92-2.15-.04-.21.17-.47.27-.71.29.13.75.19.84.41.32.71.5,1.47.81,2.45Z"/><path class="cls-2" d="M41.32,122.86q-1.89-1.12-2.57-3.01c.14,0,.36-.06.41,0,.73.99,1.45,2,2.16,3Z"/><path class="cls-2" d="M22.3,53.67c-.26-.36-.54-.58-.51-.75.06-.39.19-.83.45-1.12.16-.17.69-.22.89-.08.19.13.3.66.19.87-.21.39-.62.67-1.02,1.07Z"/><path class="cls-2" d="M25.09,52.34c.06-.84.1-1.52.16-2.37.38.2.73.28.74.4.08.71,0,1.4-.9,1.97Z"/></g></g></g></svg>