<?xml version="1.0" encoding="UTF-8"?><svg xmlns="http://www.w3.org/2000/svg" viewBox="0 0 170.84 174.16"><defs><style>.cls-1{fill:#fff;}.cls-1,.cls-2,.cls-3,.cls-4,.cls-5,.cls-6,.cls-7{fill-rule:evenodd;}.cls-2{fill:#66b32f;}.cls-8{isolation:isolate;}.cls-3{fill:#4f251f;}.cls-9{mix-blend-mode:multiply;}.cls-4{fill:#ffa04d;}.cls-10{fill:#ff4865;}.cls-5{fill:#db2738;}.cls-6{fill:#e01b15;}.cls-7{fill:#ffb11d;}</style></defs><g class="cls-8"><g id="Layer_2"><g id="OBJECTS"><path class="cls-10" d="M134.36,82.24c-.08-1.06-.14-2.13-.24-3.2-.23-2.5-.28-5.03-.77-7.48-.67-3.42-1.63-6.79-2.55-10.16-1.42-5.22-4.01-9.96-6.33-14.79-.45-.93-1.24-1.78-2.05-2.45-2.96-2.46-6.01-4.83-9.55-6.45-1.38-.63-2.76-1.29-4.07-2.07-3.12-1.87-6.57-2.35-10.08-2.37-2.68-.02-5.38.17-7.9,1.3-1.14.51-2.27,1.06-3.44,1.51-4.75,1.85-9.5,3.69-14.27,5.49-.99.37-2.05.6-3.1.79-1.14.21-2.31.35-3.47.42-2.86.16-5.72.28-8.58.39-.35.01-.71-.1-1.06-.17-3.88-.76-7.47-.05-10.78,2.1-2.79,1.82-5.26,4.02-7.58,6.4-2.57,2.63-4.24,5.73-5.15,9.29-2.39,9.36-2.2,18.67.78,27.83,2.13,6.55,4.74,12.95,6.98,19.47,2.24,6.52,5.49,12.44,9.74,17.83,1.28,1.62,2.54,3.25,3.86,4.83,2.64,3.18,5.48,6.15,8.62,8.85,2.33,2,4.89,3.63,7.66,4.94,2.93,1.38,5.97,2.44,9.09,3.25,5.16,1.34,10.41,1.22,15.43-.2,7.01-1.98,13.12-5.81,18-11.27,4.97-5.56,8.94-11.87,12.92-18.16,4.5-7.11,6.88-14.96,7.63-23.28.38-4.18.19-8.41.25-12.64Z"/><path class="cls-2" d="M110.95,18.47c.49.66.33,1.27,0,1.81-1.79,2.91-3.62,5.78-6.72,7.53-.62.35-1.21.77-1.78,1.2-1.75,1.34-3.67,2.02-5.92,2.18-2.11.15-4.19.87-6.28,1.34-.5.11-1.01.22-1.62.35-.32-1.08.23-1.88.33-2.72.09-.79.21-1.58.2-2.37,0-.25-.37-.67-.62-.7-.24-.03-.71.26-.79.5-.46,1.45-.83,2.92-1.22,4.39-.14.52-.25,1.04-.37,1.52-1.57.93-6.81,3.02-8.59,3.39-.61-2.32-.34-4.75-.75-7.02-.72-.52-1.14-.09-1.3.42-.23.76-.39,1.57-.36,2.36.06,1.6.27,3.19.44,5-2.11.89-4.14,2.44-7.04,2.1-1.05-1.14-2.2-2.38-3.35-3.62-.49-.52-.95-1.1-1.52-1.5-.3-.21-.9-.27-1.21-.11-.45.24-.33.8-.06,1.18.52.73,1.09,1.42,1.64,2.12.55.7,1.11,1.39,1.81,2.26-.53.21-.88.41-1.26.48-2.21.41-4.42.5-6.67.22-1.39-.17-2.62-.57-3.72-1.38-2.45-1.8-4.86-3.65-7.3-5.48-1.5-1.13-2.99-2.27-4.51-3.37-1.06-.77-2.22-1.43-2.96-2.55.23-.22.33-.43.46-.44,4.09-.47,8.19-.97,12.29-.06,1.22.27,2.41.65,3.61.98,1.37.38,2.73.82,4.12,1.14.92.21,1.63-.52,1.35-1.43-.31-1.02-.66-2.07-1.25-2.94-1.41-2.06-2.06-4.35-2.5-6.74-.43-2.36.1-4.41,2-6.08,1.14.33,1.85,1.16,2.5,1.98,1.78,2.23,3.79,4.3,5.07,6.91.47.95,1.17,1.8,1.84,2.64.65.83,1.65.79,2.25-.07.3-.43.53-.93.7-1.44,1.04-3.14,2.06-6.29,3.08-9.44.08-.25.1-.54.21-.77,1.7-3.68,3.94-6.96,7.17-9.59,1.61,1.34,2.11,3.04,2.25,4.82.29,3.66.47,7.32.68,10.99.02.27-.05.54-.05.8-.02,1.09.22,1.68.77,1.8.87.19,1.29-.44,1.74-.99,1.28-1.61,2.57-3.21,3.82-4.84,1.17-1.53,2.65-2.64,4.35-3.52.81-.41,1.62-.7,2.58-.47.62,1.47.24,2.84-.27,4.18-.63,1.67-1.33,3.32-1.99,4.98-.13.33-.29.66-.38,1-.29,1.1.55,1.92,1.71,1.66.26-.06.52-.13.76-.25,1.85-.89,3.79-1.65,5.52-2.74,2.25-1.42,4.61-1.81,7.12-1.61Z"/><g class="cls-9"><path class="cls-7" d="M123.64,144.29c-3.94-1.25-4.79-1.97-7.72-6.59.33-.87,1-1.55,1.63-2.16.71-.05.88.45,1.07.8,1.52,2.9,4.19,3.74,7.16,3.82,1.18.03,2.3.1,3.54.63.11.49.3,1.08.36,1.68.16,1.78.23,3.57.42,5.35.21,1.96-.4,3.71-1.22,5.42-.49,1.02-1.29,1.88-2.43,1.85-1.23-.03-1.71-1.13-2.07-2.17-.96-2.74-1.36-5.53-.62-8.4.02-.06-.07-.16-.11-.24Z"/><path class="cls-7" d="M87.32,151.14c.41,3.85,1.43,7.12,4.1,9.83.39,3.52-.61,6.73-2.84,9.61-.89,1.14-2.02,1.68-3.47,1.69-1.08,0-2.15.14-3.18-.37-1.44-2.78-.14-6.96,2.63-8.31.94-.46,1.78-1.19,2.52-1.95.8-.81.73-1.32.16-2.39-1.31-2.44-2.54-4.9-2.18-7.95.68-.05,1.35-.1,2.26-.17Z"/></g><path class="cls-5" d="M71.61,101.63c.75-.6,1.46-1,2.22-.3,1.71,1.58,3.86,1.79,5.99,1.85,3,.09,5.84-.66,8.43-2.24,1.14-.7,2.33-1.32,3.47-2.03.7-.44,1.16-1.04,1.2-1.96.03-.69.3-1.37.47-2.06.9-.46,1.75-.48,2.65-.27.68,1.52,1.09,3.04,1.15,4.67.05,1.43.2,2.86.3,4.29.26,3.75-1.41,6.56-4.38,8.65-1.09.77-2.32,1.34-3.52,1.94-1.13.57-2.33.91-3.61.93-.54,0-1.09,0-1.6.13-3.6.89-5.84-1.09-8-3.55-1.49-1.7-2.52-3.67-3.77-5.52-.96-1.43-1.18-2.93-1.01-4.52Z"/><path class="cls-1" d="M90.77,95.37c.42.96.27,1.76-.47,2.24-2.7,1.74-5.46,3.35-8.74,3.78-2.08.27-4.07-.06-6.26-.85.43-.37.68-.73,1.01-.84,4.22-1.42,8.45-2.82,12.69-4.18.56-.18,1.2-.11,1.77-.15Z"/><path class="cls-4" d="M112.02,46.63c-.83.47-1.37.09-1.87-.26-1.91-1.33-3.28-3.15-4.66-5.17,1.23-.28,2.1.22,2.97.57.91.36,1.82.75,2.63,1.28.39.26.68.84.78,1.32.16.76.12,1.56.15,2.26Z"/><path class="cls-4" d="M67.29,129.13c1.85,2.03,2.64,4.03,2.18,6.63-.38-.11-.88-.11-.95-.29-.75-1.92-1.54-3.86-1.23-6.34Z"/><path class="cls-4" d="M44.58,60.4c-.05-.48-.21-.89-.11-1.23.48-1.8,1.39-3.35,2.8-4.76.31,3.16-.27,4.46-2.69,5.99Z"/><path class="cls-4" d="M92.25,49.22c2.21.78,3.39,2.05,4.34,3.57.54.86.52.87.41,2.5-.97.38-1.47-.4-2-.91-1.36-1.29-2.29-2.84-2.75-5.15Z"/><path class="cls-4" d="M102.68,130.28c1.14,1.68.72,3.39.75,5,.02.82.05,1.78-1.09,2.37-.91-2.5-.97-4.83.35-7.37Z"/><path class="cls-4" d="M117.14,110.3c2.13,1.19,1.66,2.95,1.72,4.87-.48-.32-.85-.43-.98-.67-.68-1.19-1-2.47-.74-4.2Z"/><path class="cls-6" d="M116.74,91.84c-.51.04-.69.05-.87.06-2.2.12-2.74-.36-2.88-2.48-.08-1.21.22-2.28.92-3.28,1.46-2.11,3.49-3.29,5.96-3.79.61-.12,1.24-.18,1.86-.23,2.47-.18,3.27.61,3,3.11-.25,2.31-1.65,3.91-3.52,5.13-1.45.95-3.08,1.42-4.48,1.48Z"/><path class="cls-6" d="M56,102.45c.69,0,1.32-.04,1.93.04,2.28.3,3.27,2.38,2,4.36-.92,1.44-2.19,2.64-3.76,3.3-1.55.65-3.21,1.05-4.93,1.07-1.12.01-2.24-.12-2.73-1.24-.56-1.25-.7-2.64.19-3.81,1.21-1.59,2.73-2.81,4.73-3.27.86-.2,1.75-.31,2.57-.44Z"/><path class="cls-3" d="M38.76,109.09c-.26-.87-.43-1.55-.67-2.2-1.99-5.56-4.13-11.08-5.96-16.7-3.07-9.39-3.54-18.94-1.41-28.63,1.12-5.07,3.47-9.36,7.3-12.87,2.19-2,4.43-3.91,6.97-5.46,1.69-1.03,3.44-1.93,5.43-2.25.31-.05.59-.3.94-.48-.27-.31-.41-.54-.61-.7-3.47-2.54-6.6-5.51-10.25-7.82-1.2-.76-2.25-1.78-3.31-2.73-.39-.34-.7-.81-.93-1.28-.35-.7-.07-1.52.63-1.82.74-.32,1.51-.67,2.29-.75,4.36-.43,8.73-1.14,13.11-.2,1.39.3,2.77.69,4.15,1.07.41.11.78.36,1.2.25.03-.29.13-.51.06-.61-1.38-2.06-1.87-4.44-2.4-6.8-.74-3.26.36-6,2.49-8.4.74-.83,2.11-.98,3.22-.23,1.03.7,2.01,1.53,2.8,2.48,1.89,2.26,3.95,4.41,5.25,7.12.11.23.33.4.48.57.64-.02.7-.52.84-.92.72-2.12,1.53-4.21,2.1-6.37.63-2.38,1.72-4.49,3.14-6.49,1.45-2.05,2.93-4.07,4.89-5.68.14-.11.25-.26.38-.38,1.35-1.15,2.37-1.1,3.43.25,1.42,1.79,2.41,3.78,2.63,6.08.17,1.78.3,3.57.45,5.36.08.98.15,1.96.22,2.87.99.44,1.25-.32,1.57-.77,1.41-2.03,3.21-3.6,5.38-4.77,1.21-.65,2.49-1.03,3.85-1.08,1.55-.06,2.36.61,2.57,2.14.26,1.89.15,3.75-.64,5.53-.42.95-.89,1.9-.96,3.18,1.26-.13,2.2-.66,3.01-1.28,2.43-1.85,5.26-2.12,8.15-2.21.27,0,.54-.01.81.03,1.76.25,2.73,1.44,2.4,3.21-.17.94-.59,1.88-1.09,2.71-1.95,3.26-4.22,6.24-7.65,8.11-.3.17-.55.45-.83.68.15.16.24.34.37.38,6.97,2.51,13.37,6.03,19.09,10.76,1.19.98,2.29,2.05,2.95,3.45,2.16,4.62,4.68,9.1,6.09,14.03,1.21,4.22,2.37,8.46,3.25,12.75.52,2.52.45,5.17.65,7.76.05.61.09,1.22.14,1.85.73.5,1.42.15,2.08-.03,3.75-1.06,7.63-1.26,11.45-1.07,2.73.14,5.43,1.08,8.12,1.75,1.47.36,2.87.97,4.34,1.35.67.17,1.42.12,2.12.04,1.85-.21,3.54.38,5.25.92.29.09.54.45.72.74.27.44-.18,1.19-.71,1.15-.7-.05-1.4-.24-2.1-.31-.86-.09-1.68-.75-2.58-.24-.12.76.48.93.96,1.07,1.74.54,2.84,1.81,3.82,3.23.35.5.27,1.16-.15,1.45-.5.34-1.06.36-1.49-.03-.53-.47-.95-1.07-1.44-1.59-.42-.44-.88-.83-1.75-.76.62,1.44,1.17,2.74,1.74,4.03.25.56.22,1.05-.3,1.41-.62.42-1.51.19-1.83-.5-.33-.73-.55-1.51-.85-2.26-.19-.48-.31-1.03-1.05-1.2-.33.96.02,1.91.01,2.85,0,.54.04,1.07,0,1.61-.05.58-.59,1.12-1.06.97-.37-.11-.82-.45-.94-.79-.25-.71-.32-1.49-.55-2.75-.45.81-.65,1.17-.85,1.52-.29.52-.73.8-1.33.62-.63-.19-.73-.74-.7-1.29.02-.35.16-.69.25-1.04.38-1.66.79-3.31,1.14-4.97.32-1.51-.31-2.71-1.78-3.1-3.8-1.01-7.58-2.09-11.63-1.54-2.57.35-5.19.33-7.68,1.14-.33.11-.66.23-1.01.36-.46.99-.24,1.99-.2,2.94.24,6.14-.59,12.15-2.19,18.07-1.17,4.35-2.77,8.54-5.16,12.36-2.75,4.4-5.7,8.69-8.56,13.03-.54.81-1.08,1.62-1.53,2.28.93,3.87,4.42,5.13,7.49,5.06,3.02-.08,5.04,1.22,5.44,3.66.19,1.14.14,2.32.14,3.48,0,.8-.21,1.61-.12,2.39.26,2.34-.54,4.42-1.48,6.46-.54,1.17-1.47,2.01-2.63,2.6-1.51.76-2.66.62-3.95-.5-.83-.72-1.42-1.6-1.78-2.64-.52-1.53-.97-3.06-.99-4.7-.01-1.07-.15-2.14-.24-3.29-3.16-1.18-4.69-4.02-6.72-6.5-7.31,6.11-14.97,11.29-24.93,11.72-.29,1.08-.11,2.04.2,2.95.37,1.09.79,2.2,1.4,3.17.27.43,1.07.54,1.74.84.61,1.34.35,2.9.6,4.38.25,1.48-.24,2.81-.63,4.19-.64,2.29-1.59,4.36-3.32,6.04-.8.78-1.68,1.43-2.78,1.5-1.6.11-3.22.17-4.81.01-1.51-.15-2.24-.97-2.38-2.47-.12-1.32-.23-2.7,0-4,.42-2.38,1.6-4.35,3.84-5.54.63-.33,1.21-.77,1.79-1.14.34-.9-.11-1.64-.45-2.32-1.12-2.2-1.71-4.51-1.73-6.98,0-.16-.12-.33-.24-.64-.4-.13-.88-.35-1.39-.44-3.09-.59-6.06-1.61-8.97-2.76-4.38-1.72-8.32-4.17-11.79-7.37-6.5-6-11.97-12.84-16.63-20.33-1.18-1.89-2.05-3.98-3.04-5.98-.39-.79-.74-1.61-1.17-2.57-.47.11-.93.13-1.28.32-1.95,1.07-4.09,1.19-6.23,1.43-3.25.37-6.42.09-9.58-.69-2.75-.68-5.19-1.93-7.46-3.57-.87-.63-1.74-1.2-2.79-1.56-.91-.31-1.77-.87-2.55-1.45-.9-.67-1.85-1.02-2.96-1.12-1.87-.16-3.73-.41-5.59-.65-.34-.04-.71-.15-.98-.35-.17-.12-.24-.44-.26-.68-.01-.13.14-.37.27-.41.59-.16,1.2-.32,1.81-.38.53-.04,1.07.08,1.61.09.46,0,.98-.1.97-.65,0-.38-.21-.9-.5-1.12-.85-.65-1.8-1.17-2.7-1.76-.37-.24-.74-.51-1.07-.81-.35-.32-.6-.81-.27-1.17.25-.27.81-.41,1.19-.36.51.08.99.38,1.46.62.47.24.92.52,1.33.76.58-.37.24-.7.08-.93-.6-.89-1.26-1.74-1.89-2.61-.55-.77-.54-1.48.29-2.15,2.15.8,2.96,2.97,4.43,4.47.61-.4.27-.82.16-1.17-.4-1.37-.86-2.73-1.23-4.11-.12-.44.07-.9.59-1.05.49-.13.91.08,1.13.5.42.79.77,1.61,1.13,2.43.46,1.05.91,2.11,1.44,3.35.71-.49.91-1.02.95-1.63.07-.98.07-1.97.2-2.95.03-.28.36-.68.61-.72.23-.04.68.28.76.53.46,1.46.8,3,.27,4.48-.51,1.4-.63,2.77-.34,4.2.02.09.04.18.02.27-.52,2.55,1.03,3.89,2.85,5.27,3.15,2.4,6.6,4,10.51,4.44,4.2.48,8.39.5,12.67-1.56ZM134.36,82.24c-.08-1.06-.14-2.13-.24-3.2-.23-2.5-.28-5.03-.77-7.48-.67-3.42-1.63-6.79-2.55-10.16-1.42-5.22-4.01-9.96-6.33-14.79-.45-.93-1.24-1.78-2.05-2.45-2.96-2.46-6.01-4.83-9.55-6.45-1.38-.63-2.76-1.29-4.07-2.07-3.12-1.87-6.57-2.35-10.08-2.37-2.68-.02-5.38.17-7.9,1.3-1.14.51-2.27,1.06-3.44,1.51-4.75,1.85-9.5,3.69-14.27,5.49-.99.37-2.05.6-3.1.79-1.14.21-2.31.35-3.47.42-2.86.16-5.72.28-8.58.39-.35.01-.71-.1-1.06-.17-3.88-.76-7.47-.05-10.78,2.1-2.79,1.82-5.26,4.02-7.58,6.4-2.57,2.63-4.24,5.73-5.15,9.29-2.39,9.36-2.2,18.67.78,27.83,2.13,6.55,4.74,12.95,6.98,19.47,2.24,6.52,5.49,12.44,9.74,17.83,1.28,1.62,2.54,3.25,3.86,4.83,2.64,3.18,5.48,6.15,8.62,8.85,2.33,2,4.89,3.63,7.66,4.94,2.93,1.38,5.97,2.44,9.09,3.25,5.16,1.34,10.41,1.22,15.43-.2,7.01-1.98,13.12-5.81,18-11.27,4.97-5.56,8.94-11.87,12.92-18.16,4.5-7.11,6.88-14.96,7.63-23.28.38-4.18.19-8.41.25-12.64ZM110.95,18.47c-2.51-.2-4.87.19-7.12,1.61-1.73,1.09-3.67,1.84-5.52,2.74-.24.11-.5.19-.76.25-1.16.26-2-.56-1.71-1.66.09-.34.25-.67.38-1,.67-1.66,1.36-3.31,1.99-4.98.51-1.34.89-2.71.27-4.18-.96-.23-1.77.06-2.58.47-1.69.87-3.18,1.99-4.35,3.52-1.25,1.63-2.54,3.23-3.82,4.84-.44.56-.87,1.18-1.74.99-.55-.12-.79-.71-.77-1.8,0-.27.07-.54.05-.8-.21-3.66-.39-7.33-.68-10.99-.14-1.78-.65-3.48-2.25-4.82-3.23,2.63-5.46,5.91-7.17,9.59-.11.24-.13.52-.21.77-1.02,3.15-2.04,6.3-3.08,9.44-.17.5-.4,1-.7,1.44-.6.86-1.6.89-2.25.07-.66-.84-1.37-1.69-1.84-2.64-1.28-2.62-3.29-4.68-5.07-6.91-.65-.81-1.36-1.64-2.5-1.98-1.9,1.67-2.43,3.72-2,6.08.44,2.39,1.1,4.69,2.5,6.74.59.87.95,1.92,1.25,2.94.27.91-.43,1.64-1.35,1.43-1.39-.32-2.75-.76-4.12-1.14-1.2-.34-2.39-.72-3.61-.98-4.1-.9-8.19-.41-12.29.06-.13.01-.24.22-.46.44.74,1.12,1.9,1.78,2.96,2.55,1.52,1.1,3.01,2.24,4.51,3.37,2.43,1.83,4.85,3.68,7.3,5.48,1.1.81,2.33,1.21,3.72,1.38,2.25.28,4.46.19,6.67-.22.38-.07.73-.28,1.26-.48-.7-.88-1.26-1.57-1.81-2.26-.56-.7-1.12-1.39-1.64-2.12-.27-.38-.4-.94.06-1.18.31-.17.91-.1,1.21.11.57.41,1.03.98,1.52,1.5,1.15,1.23,2.3,2.48,3.35,3.62,2.9.34,4.93-1.22,7.04-2.1-.17-1.82-.38-3.41-.44-5-.03-.78.13-1.6.36-2.36.15-.51.57-.94,1.3-.42.42,2.27.14,4.7.75,7.02,1.78-.38,7.02-2.46,8.59-3.39.11-.48.23-1,.37-1.52.39-1.47.77-2.94,1.22-4.39.08-.24.54-.54.79-.5.25.04.61.45.62.7.01.79-.11,1.58-.2,2.37-.1.84-.64,1.64-.33,2.72.61-.13,1.12-.24,1.62-.35,2.09-.47,4.17-1.19,6.28-1.34,2.25-.16,4.17-.84,5.92-2.18.57-.43,1.16-.85,1.78-1.2,3.09-1.75,4.93-4.62,6.72-7.53.34-.54.5-1.16,0-1.81ZM123.64,144.29c.04.08.13.17.11.24-.74,2.87-.33,5.65.62,8.4.36,1.05.84,2.15,2.07,2.17,1.14.02,1.94-.84,2.43-1.85.82-1.71,1.43-3.46,1.22-5.42-.19-1.78-.26-3.57-.42-5.35-.06-.6-.25-1.19-.36-1.68-1.24-.53-2.36-.6-3.54-.63-2.97-.09-5.63-.92-7.16-3.82-.19-.36-.36-.85-1.07-.8-.63.61-1.3,1.28-1.63,2.16,2.93,4.63,3.78,5.35,7.72,6.59ZM87.32,151.14c-.91.07-1.57.12-2.26.17-.37,3.05.87,5.51,2.18,7.95.57,1.07.65,1.57-.16,2.39-.74.75-1.58,1.49-2.52,1.95-2.77,1.35-4.07,5.53-2.63,8.31,1.03.51,2.1.38,3.18.37,1.45-.01,2.58-.55,3.47-1.69,2.23-2.88,3.23-6.09,2.84-9.61-2.67-2.71-3.69-5.98-4.1-9.83Z"/><path class="cls-3" d="M99.51,101.44c.04.54.07,1.07.12,1.61.47,5.07-1.64,8.8-5.85,11.5-2.85,1.83-5.9,2.75-9.3,3.06-3.15.29-5.74-.14-8.08-2.42-1.55-1.51-2.86-3.18-4.11-4.9-.78-1.08-1.31-2.35-2.04-3.47-.72-1.09-1.02-2.26-1.1-3.54-.13-2.17-.41-2.53,2.22-3.65,5.52-2.35,11.16-4.39,16.95-5.96,2.32-.63,4.75-.86,7.13-1.25,1.73-.28,2.6.31,3.03,2.12.55,2.28.89,4.56,1.02,6.88ZM71.61,101.63c-.17,1.59.04,3.1,1.01,4.52,1.25,1.85,2.28,3.81,3.77,5.52,2.15,2.46,4.39,4.44,8,3.55.51-.13,1.07-.12,1.6-.13,1.28-.01,2.48-.35,3.61-.93,1.19-.61,2.43-1.18,3.52-1.94,2.96-2.09,4.63-4.9,4.38-8.65-.1-1.43-.24-2.86-.3-4.29-.06-1.63-.48-3.15-1.15-4.67-.9-.22-1.75-.2-2.65.27-.16.69-.44,1.37-.47,2.06-.04.92-.51,1.52-1.2,1.96-1.13.71-2.32,1.33-3.47,2.03-2.59,1.58-5.43,2.33-8.43,2.24-2.13-.06-4.28-.27-5.99-1.85-.76-.71-1.47-.3-2.22.3ZM90.77,95.37c-.57.04-1.21-.03-1.77.15-4.24,1.36-8.47,2.76-12.69,4.18-.33.11-.58.48-1.01.84,2.19.79,4.18,1.12,6.26.85,3.28-.43,6.04-2.04,8.74-3.78.74-.48.89-1.28.47-2.24Z"/><path class="cls-3" d="M56.44,90.26c.45-.37.69-.64.99-.81,1.89-1.03,3.8-.39,4.6,1.57.7,1.71.57,3.51.34,5.26-.15,1.16-1.24,1.92-2.49,2.06-1.18.13-2.1-.28-2.65-1.36-.28-.55-.54-1.13-.69-1.73-.41-1.65-.89-3.23-2.3-4.37-.3-.24-.4-.77-.48-1.19-.04-.21.13-.55.31-.67.18-.12.57-.16.74-.05.51.33.96.76,1.61,1.29Z"/><path class="cls-3" d="M105.51,80.69c.12.6.33,1.38.41,2.17.07.7.1,1.44-.04,2.12-.43,2.06-2.6,3.15-4.53,2.32-.31-.14-.63-.37-.83-.65-.95-1.34-1.49-2.83-1.31-4.5.13-1.18,1.6-2.66,2.82-2.89.52-.09,1.05-.09,1.7-.14.44-.67.88-1.43,1.42-2.12.17-.21.67-.35.92-.26.24.09.55.57.49.8-.27,1.02-.65,2-1.05,3.15Z"/><path class="cls-3" d="M103.59,39.64c.53-.63,1.14-.92,1.91-.78,2.3.43,4.46,1.25,6.49,2.39.89.5,1.51,1.3,1.65,2.33.16,1.14.29,2.31.26,3.45-.04,1.31-1.14,2.08-2.42,1.8-1.34-.29-2.54-.94-3.47-1.91-1.23-1.29-2.38-2.66-3.48-4.06-.72-.93-1.01-2.05-.95-3.22ZM112.02,46.63c-.04-.7,0-1.5-.15-2.26-.1-.48-.39-1.07-.78-1.32-.81-.53-1.72-.92-2.63-1.28-.87-.34-1.73-.85-2.97-.57,1.39,2.02,2.75,3.84,4.66,5.17.5.35,1.04.73,1.87.26Z"/><path class="cls-3" d="M65.46,129.25c-.04-1.16-.11-2.32-.09-3.48,0-.68.78-1.08,1.37-.71.44.27.91.61,1.16,1.04,1,1.69,1.99,3.39,2.87,5.15.74,1.48.71,3.13.56,4.73-.1,1.11-1.5,1.94-2.64,1.7-1.16-.24-1.92-.94-2.18-2.1-.47-2.09-1.15-4.15-1.05-6.33ZM67.29,129.13c-.31,2.49.47,4.42,1.23,6.34.07.18.57.18.95.29.46-2.6-.33-4.61-2.18-6.63Z"/><path class="cls-3" d="M49.47,51.1c.11.18.28.34.27.49-.25,2.12-.48,4.24-.79,6.35-.22,1.5-1.19,2.6-2.31,3.5-.52.41-1.27.65-1.94.73-1.2.14-2.07-.64-2.12-1.88-.03-.69.03-1.46.31-2.08,1.1-2.47,2.65-4.65,4.7-6.43.5-.44,1.1-.96,1.89-.67ZM44.58,60.4c2.42-1.53,2.99-2.83,2.69-5.99-1.41,1.41-2.32,2.97-2.8,4.76-.09.34.06.75.11,1.23Z"/><path class="cls-3" d="M90.71,46.74c.86.29,1.44.5,2.04.68,2.75.81,4.52,2.73,5.81,5.17.25.46.41,1,.5,1.51.18,1,.12,2.05-.81,2.65-.96.62-2.06.57-3-.15-.64-.48-1.26-1.01-1.77-1.62-1.71-2.03-2.59-4.44-2.99-7.03-.05-.32.11-.67.22-1.22ZM92.25,49.22c.46,2.31,1.39,3.86,2.75,5.15.53.51,1.03,1.29,2,.91.11-1.63.13-1.64-.41-2.5-.95-1.52-2.13-2.79-4.34-3.57Z"/><path class="cls-3" d="M103.43,128.44c.6.94,1.03,1.99,1.16,3.15.13,1.06.26,2.12.42,3.17.18,1.19-.04,2.31-.52,3.38-.68,1.54-2.33,1.81-3.45.57-.34-.38-.62-.89-.73-1.39-.61-2.78-.33-5.48.99-8.03.42-.82,1.17-1.02,2.13-.86ZM102.68,130.28c-1.32,2.53-1.26,4.86-.35,7.37,1.14-.58,1.11-1.55,1.09-2.37-.03-1.61.39-3.32-.75-5Z"/><path class="cls-3" d="M115.86,107.45c1.83.63,3.02,1.79,4.07,3.12.21.26.35.63.39.97.13,1.23.25,2.47.28,3.71.02.91-.55,1.46-1.47,1.57-1.07.13-1.97-.18-2.46-1.17-.39-.79-.81-1.62-.93-2.47-.23-1.57-.27-3.17-.34-4.76-.01-.23.22-.47.46-.96ZM117.14,110.3c-.26,1.73.06,3.01.74,4.2.14.24.5.35.98.67-.07-1.91.41-3.67-1.72-4.87Z"/></g></g></g></svg>